<svg width="191" height="49" viewBox="0 0 191 49" fill="none" xmlns="http://www.w3.org/2000/svg">
<path d="M9.51855 24.7701H6.63867L10.3916 35.5689H10.4492L14.1729 24.7701H11.3125V4.232H15.6104C16.5526 4.232 17.3511 4.37617 18.0049 4.66462C18.6778 4.95306 19.2254 5.33823 19.6484 5.81892C20.0715 6.29964 20.3699 6.85722 20.543 7.49177C20.7352 8.10705 20.8311 8.75143 20.8311 9.42439V10.1744C20.831 10.7319 20.7836 11.203 20.6875 11.5875C20.6106 11.9721 20.4856 12.3088 20.3125 12.5972C19.9856 13.1357 19.4855 13.5974 18.8125 13.982C19.5044 14.3088 20.014 14.7892 20.3408 15.4234C20.6677 16.058 20.8311 16.924 20.8311 18.0201V19.1734C20.8311 20.981 20.3894 22.3662 19.5049 23.3277C18.8367 24.0702 17.8527 24.5247 16.5537 24.6939H17.0547V45.232H14.1123V32.7418H14.0547L11.1416 41.5679H9.66992L6.78516 32.7418H6.72754V45.232H3.78613V24.6939H4.27734C2.9788 24.5247 1.99533 24.0699 1.32715 23.3277C0.442566 22.3662 0 20.981 0 19.1734V18.0201C0 16.924 0.163324 16.058 0.490234 15.4234C0.817076 14.7892 1.32667 14.3088 2.01855 13.982C1.34559 13.5974 0.845439 13.1356 0.518555 12.5972C0.345523 12.3088 0.221445 11.972 0.144531 11.5875C0.0483983 11.2029 1.71745e-05 10.7319 0 10.1744V9.42439C0 8.75144 0.0958488 8.10704 0.288086 7.49177C0.461136 6.85725 0.759637 6.29963 1.18262 5.81892C1.6056 5.33825 2.15329 4.95305 2.82617 4.66462C3.47997 4.37618 4.27847 4.23201 5.2207 4.232H9.51855V24.7701ZM5.27832 15.2506C4.73997 15.2506 4.30735 15.3181 3.98047 15.4527C3.65356 15.5681 3.39347 15.7606 3.20117 16.0299C3.02824 16.299 2.91314 16.6259 2.85547 17.0103C2.79779 17.3949 2.76857 17.8467 2.76855 18.3658C2.76855 18.8657 2.78772 19.3275 2.82617 19.7506C2.86463 20.1736 2.97048 20.5396 3.14355 20.8472C3.31663 21.1548 3.57678 21.3949 3.92285 21.5679C4.24976 21.741 4.71154 21.8277 5.30762 21.8277H6.57617V15.2506H5.27832ZM14.2549 21.8277H15.5234C16.1194 21.8277 16.5813 21.7409 16.9082 21.5679C17.2542 21.3949 17.5144 21.1548 17.6875 20.8472C17.8606 20.5396 17.9664 20.1736 18.0049 19.7506C18.0433 19.3275 18.0625 18.8657 18.0625 18.3658C18.0625 17.8467 18.0333 17.3949 17.9756 17.0103C17.9179 16.6259 17.8028 16.299 17.6299 16.0299C17.4376 15.7606 17.1775 15.5681 16.8506 15.4527C16.5237 15.3181 16.0911 15.2506 15.5527 15.2506H14.2549V21.8277ZM5.36523 7.00153C4.38465 7.00153 3.71111 7.23156 3.3457 7.69294C2.96113 8.15443 2.76858 8.84713 2.76855 9.77009C2.76855 10.7121 2.94211 11.4332 3.28809 11.9332C3.615 12.4139 4.26927 12.6549 5.25 12.6549H6.57617V7.00153H5.36523ZM14.2549 12.6549H15.582C16.5625 12.6548 17.2161 12.4139 17.543 11.9332C17.889 11.4332 18.0625 10.7122 18.0625 9.77009C18.0625 8.84713 17.8699 8.15443 17.4854 7.69294C17.1199 7.23161 16.4463 7.00153 15.4658 7.00153H14.2549V12.6549Z" fill="#816A32"/>
<path d="M85.2535 1.44043C89.8134 1.44043 93.822 2.51974 97.2779 4.67969C100.734 6.7916 103.374 9.59971 105.198 13.1035C107.07 16.6074 108.005 20.3278 108.005 24.2637C108.005 28.6316 106.854 32.6401 104.55 36.2881C102.246 39.936 99.1501 42.8158 95.2623 44.9277C91.4223 47.0397 87.246 48.0957 82.734 48.0957C78.27 48.0957 74.2858 47.064 70.7818 45C67.3259 42.888 64.6383 40.0558 62.7184 36.5039C60.8464 32.9039 59.9098 28.9916 59.9098 24.7676C59.9098 19.8238 61.158 15.5996 63.6539 12.0957C66.1499 8.5438 69.3421 5.87948 73.2301 4.10352C77.1658 2.32767 81.1738 1.44049 85.2535 1.44043ZM36.6734 2.01562C41.0414 2.01562 44.4258 2.80763 46.8258 4.3916C49.2257 5.97555 50.4253 8.27985 50.4254 11.3037C50.4254 14.0876 49.3217 16.5598 47.1139 18.7197C45.7163 20.0862 43.9157 21.179 41.7144 22.0029C43.6561 22.2407 45.4319 22.706 47.0416 23.4004C49.5375 24.4564 51.4574 25.9201 52.8014 27.792C54.1454 29.664 54.818 31.8002 54.818 34.2002C54.8179 36.696 54.0977 38.9519 52.6578 40.9678C51.2178 42.9838 49.2252 44.592 46.6812 45.792C44.1373 46.9439 41.305 47.5195 38.1852 47.5195C36.8413 47.5195 35.3055 47.4477 33.5777 47.3037C32.9057 47.2557 32.0652 47.2082 31.0572 47.1602C30.0974 47.1122 29.0177 47.0879 27.818 47.0879L22.5611 47.1602C21.6012 47.2081 20.3052 47.2324 18.6734 47.2324C18.5296 47.2323 18.4576 47.0877 18.4576 46.7998C18.4576 46.5121 18.5296 46.3683 18.6734 46.3682C20.0653 46.3682 21.1214 46.2478 21.8414 46.0078C22.5614 45.7198 23.0661 45.2403 23.3541 44.5684C23.6901 43.8484 23.858 42.7922 23.858 41.4004V8.06445C23.858 6.04845 23.5212 4.72752 22.8492 4.10352C22.1771 3.43182 20.8092 3.09571 18.7457 3.0957C18.6497 3.0957 18.6012 2.95202 18.6012 2.66406C18.6012 2.37606 18.6497 2.23242 18.7457 2.23242L22.5611 2.30371C24.7691 2.39971 26.522 2.44824 27.818 2.44824C29.1619 2.44823 30.5539 2.37641 31.9937 2.23242C32.4737 2.18442 33.194 2.13589 34.1539 2.08789C35.1137 2.0399 35.9535 2.01563 36.6734 2.01562ZM157.349 0C157.829 0 158.021 0.0718531 157.925 0.21582C157.877 0.35982 157.853 0.551996 157.853 0.791992C157.853 1.3679 158.117 1.7523 158.645 1.94434C159.221 2.13634 160.35 2.23242 162.03 2.23242H188.309C188.549 2.23242 188.717 2.35202 188.813 2.5918C188.957 2.8318 188.957 3.02397 188.813 3.16797L163.902 45.2881C163.71 45.5279 163.637 45.696 163.685 45.792C163.733 45.84 163.901 45.8642 164.189 45.8643H178.734C180.462 45.8642 182.142 45.4323 183.774 44.5684C185.406 43.6564 186.798 42.4557 187.95 40.9678C189.102 39.4799 189.822 37.8957 190.11 36.2158C190.158 36.072 190.302 36 190.542 36C190.781 36 190.902 36.0719 190.902 36.2158L189.893 46.6562C189.893 46.8002 189.821 46.9683 189.677 47.1602C189.581 47.304 189.438 47.3759 189.246 47.376C182.094 47.28 170.597 47.2324 154.757 47.2324C154.566 47.2324 154.422 47.1361 154.326 46.9443C154.23 46.7044 154.253 46.4879 154.397 46.2959L179.67 4.03223C179.814 3.79223 179.861 3.64761 179.813 3.59961C179.813 3.50387 179.645 3.45605 179.309 3.45605C173.838 3.45606 169.662 3.67156 166.782 4.10352C163.95 4.48752 161.621 5.35229 159.797 6.69629C157.974 7.9923 156.389 10.0325 155.046 12.8164C154.997 12.8643 154.901 12.8877 154.757 12.8877C154.326 12.8877 154.133 12.7916 154.181 12.5996L157.061 0.0722656C157.061 0.024294 157.157 2.77889e-05 157.349 0ZM152.66 2.23242C152.756 2.23276 152.803 2.3764 152.803 2.66406C152.803 2.95168 152.756 3.09537 152.66 3.0957C151.172 3.0957 149.347 4.0323 147.187 5.9043C145.027 7.72825 143.107 10.0326 141.427 12.8164L133.939 25.3154V41.4004C133.939 42.888 134.06 43.9677 134.299 44.6396C134.539 45.3116 134.996 45.7678 135.668 46.0078C136.388 46.2478 137.515 46.3682 139.051 46.3682C139.195 46.3682 139.267 46.5119 139.267 46.7998C139.267 47.0878 139.195 47.2324 139.051 47.2324C137.467 47.2324 136.219 47.2082 135.307 47.1602L129.908 47.0879L124.58 47.1602C123.62 47.2082 122.323 47.2324 120.691 47.2324C120.595 47.232 120.547 47.0874 120.547 46.7998C120.547 46.5124 120.595 46.3686 120.691 46.3682C122.227 46.3682 123.356 46.2478 124.076 46.0078C124.796 45.7678 125.275 45.3115 125.515 44.6396C125.803 43.9197 125.948 42.84 125.948 41.4004V26.833L115.435 10.5117C113.659 7.7279 112.171 5.80791 110.971 4.75195C109.819 3.64802 108.835 3.0957 108.019 3.0957C107.875 3.0955 107.803 2.95182 107.803 2.66406C107.803 2.37626 107.875 2.23262 108.019 2.23242L110.252 2.30371C111.307 2.39967 112.051 2.44821 112.483 2.44824C114.163 2.44824 116.587 2.39971 119.755 2.30371L124.507 2.23242C124.603 2.23242 124.651 2.37606 124.651 2.66406C124.651 2.95202 124.603 3.0957 124.507 3.0957C123.691 3.09571 123.043 3.28788 122.563 3.67188C122.131 4.05578 121.916 4.55985 121.916 5.18359C121.916 5.95158 122.251 6.86395 122.923 7.91992L132.773 23.4463L139.412 12.168C140.708 10.008 141.355 8.15998 141.355 6.62402C141.355 5.47202 140.995 4.60823 140.275 4.03223C139.603 3.40836 138.62 3.09577 137.324 3.0957C137.18 3.0957 137.107 2.95202 137.107 2.66406C137.107 2.37606 137.18 2.23242 137.324 2.23242L141.139 2.30371C143.347 2.39971 145.316 2.44824 147.044 2.44824C147.86 2.44824 148.844 2.39971 149.996 2.30371L152.66 2.23242ZM82.3736 3.38379C78.0058 3.38386 74.6455 5.03971 72.2935 8.35156C69.9416 11.6155 68.7663 16.1997 68.7662 22.1035C68.7662 26.7595 69.4621 30.9359 70.8541 34.6318C72.2941 38.2798 74.2381 41.1362 76.6861 43.2002C79.1821 45.2641 81.99 46.2959 85.11 46.2959C87.7979 46.2959 90.1982 45.5282 92.3102 43.9922C94.4701 42.4082 96.1502 40.1282 97.3502 37.1523C98.5502 34.1283 99.15 30.5276 99.15 26.3516C99.1499 21.9358 98.4783 17.9998 97.1344 14.5439C95.7904 11.0401 93.8462 8.30392 91.3023 6.33594C88.7583 4.36794 85.7816 3.38379 82.3736 3.38379ZM35.6656 23.9043C34.3146 23.9043 33.0666 23.9528 31.9215 24.0479V41.4004C31.9215 42.9842 32.2341 44.1122 32.858 44.7842C33.4821 45.408 34.8499 45.7197 36.9615 45.7197C43.2495 45.7197 46.3932 42.4557 46.3932 35.9277C46.3931 32.2319 45.506 29.3035 43.7301 27.1436C41.9541 24.9836 39.2656 23.9043 35.6656 23.9043ZM35.5934 3.59961C34.2015 3.59965 33.2414 3.93644 32.7135 4.6084C32.1856 5.23248 31.9215 6.43229 31.9215 8.20801V21.9141C32.9627 21.9436 33.9226 21.96 34.8014 21.96C37.2972 21.96 39.2171 21.024 40.5611 19.1523C41.9051 17.2804 42.5777 14.8801 42.5777 11.9521C42.5777 9.21616 41.9779 7.15176 40.7779 5.75977C39.5779 4.31977 37.8494 3.59961 35.5934 3.59961Z" fill="#F5EEE5"/>
</svg>
